<?xml version="1.0" encoding="UTF-8"?>
<svg id="Calque_1" xmlns="http://www.w3.org/2000/svg" version="1.1" viewBox="0 0 70 70">
  <!-- Generator: Adobe Illustrator 29.6.1, SVG Export Plug-In . SVG Version: 2.1.1 Build 9)  -->
  <defs>
    <style>
      .st0 {
        fill-rule: evenodd;
      }

      .st0, .st1 {
        fill: #e60013;
      }

      .st2 {
        fill: #fff;
      }
    </style>
  </defs>
  <g>
    <g>
      <path class="st1" d="M34.69,68.91c-7.28-9.28-22.27-32.66-22.27-45.66S22.55.41,35.01.41s22.59,10.25,22.59,22.85-13.67,34.45-22.27,45.66l-.32.41-.32-.41h.01Z"/>
      <path class="st2" d="M35.01.82c12.25,0,22.19,10.05,22.19,22.44s-14.27,35.11-22.19,45.4c-7.99-10.21-22.19-33.02-22.19-45.4S22.75.82,35.01.82M35.01,0C22.33,0,12,10.44,12,23.27s15.06,36.6,22.36,45.91l.64.82.63-.83c8.64-11.26,22.36-33.66,22.36-45.9S47.68,0,35.01,0h0Z"/>
    </g>
    <ellipse class="st2" cx="35.31" cy="23.59" rx="16.2" ry="16.39"/>
  </g>
  <path class="st0" d="M38.1,28.47c0-.06-.02-.09-.02-.15.02-.12-.02-.13-.05-.18-.03-.06,0-.07-.02-.15-.03-.11-.13-.45-.17-.55-.02-.03-.03-.08-.05-.12h0c-.02-.06-.05-.13-.06-.16-.02-.06-.02-.09-.03-.14-.04-.13-.15-.26-.16-.32-.02-.06-.04-.15-.06-.17s-.06-.08-.07-.11c0-.03-.02-.07-.05-.1-.02-.02-.11-.06-.11-.12s.02-.04,0-.1c-.03-.06-.09-.11-.11-.16s-.16-.27-.29-.39c-.05-.04-.14-.06-.15-.12-.02-.05-.11-.13-.14-.15s-.06-.03-.07-.06-.03-.07-.06-.08c-.05-.02-.06-.04-.06-.04,0,0-.05-.05-.09-.1-.04-.06-.11-.11-.16-.12-.05-.02-.04-.02-.08-.06t-.07-.02c-.06,0-.16.4-.21.45-.05.06-.09.14-.1.2,0,.06-.29.67-.35.76s-.08.15-.13.27-.04.14-.07.19c-.04.06-.08.11-.14.24l-.15.36s0,.02-.03.06h0c-.04.06-.11.19-.19.33-.13.22-.12.3-.17.34-.05.04-.05.14-.1.21s-.07.15-.13.23c-.06.07-.11.23-.15.33,0,0-.06.2-.11.24-.05.05-.11.16-.13.23s-.07.17-.11.22-.05.09-.11.19c-.06.11-.17.33-.24.43s-.1.24-.15.33-.03.1-.08.14c-.06.05-.03.06-.11.06-.07,0-.11.04-.11-.03,0-.06.02-.11-.02-.11s-.03,0-.07.04c-.05.06-.06.03-.11.06s0,.02-.09.05c-.1.02-.06,0-.11,0s-.04.03-.11.05c-.06.02-.11.02-.11-.02s.02,0,0-.06,0-.07-.04-.06c-.05.02-.07.03-.11,0-.03-.04-.02-.05-.06-.05s-.09,0-.12-.02-.06-.06-.11-.08c-.06-.02-.11,0-.16.03s-.02.06-.06.06-.06.03-.08-.02c-.02-.06,0-.12-.04-.14-.04-.02-.06,0-.13,0s-.02-.03-.05-.08c-.02-.05-.04,0-.1-.04-.06-.05-.02-.05-.06-.07-.04-.02-.07,0-.12,0-.06,0-.11-.02-.13-.07-.04-.07-.04-.23-.04-.27s-.02-.04-.06-.03c-.05,0-.29.15-.33.16s-1.09.64-1.17.71c-.07.06-.12.11-.13.2-.02.09-.02.38,0,.54.02.23.15.66.22.8.07.15.23.41.39.53.09.06.15.1.21.1s.51-.26.73-.37,1.22-.63,1.35-.69,2.24-1.14,2.34-1.18c.1-.06,2.04-.98,2.14-1.04.1-.06,1.56-.75,1.59-.77.03-.02.08-.03.06-.09s-.06-.09-.06-.19l-.02.02h0ZM41.66,27.32h-.26v.1s.1-.04.26-.1ZM30.77,29c.2-.07.15-.15.19-.21.03-.05-.02-.11.06-.2.06-.06.23-.62.23-.62,0,0,.11-.19.09-.24-.02-.06.06-.23.12-.4h0c.05-.11.09-.21.1-.27.02-.08.13-.3.16-.36s.06-.19.1-.33c.03-.1.23-.65.23-.65,0,0,.2-.41.22-.55,0-.05.11-.21.13-.28s0-.12.05-.16.18-.3.18-.38.15-.3.23-.48c.1-.32.11-.4.2-.52.07-.1.1-.27.12-.37.03-.1.06-.2.11-.28.05-.07.14-.27.16-.33s.03-.16.04-.22.09-.11.11-.17c.02-.08.02-.06.02-.11v-.11s.06-.11.03-.17-.18.03-.36.09c-.03,0-.17.07-.37.17h0c-1.18.57-4.68,2.29-4.68,2.29l-3.27,1.68s-1.37.7-1.55.93c-.09.11-.11.28-.06.57h0c.02.12.06.27.11.45.15.56.27.84.37.92.26.16.9-.27,1.52-.53,1.41-.55,2.09-.75,2.09-.75,0,0,.16-.03.07.03-.3.21-1.39.73-1.91,1.02-.66.38-2.65,1.46-2.75,1.58-.1.12-.24.21-.22.46,0,0,.06.48.32,1.05.16.35.43.68.64.75.21.06.27-.1.6-.23.1-.04,5-2.4,5-2.4,0,0,1.34-.59,1.55-.66h.02l-.03.03ZM49.25,22.25c-.03-.13-.07-.27-.11-.41h0c-.1-.33-.21-.62-.28-.7-.06-.06-.18-.11-.28-.08-.11.03-2.41.55-2.41.55,0,0-.4.1-.92.23h0c-.78.19-1.81.46-2.07.52-.63.15-3.23.97-3.71,1.15-.02,0-.11.03-.11.08s.03.05.06.1c.03.04.15.11.28.26.09.1.16.23.23.28.06.06.09.11.1.15s.05.06.06.09c.02.03.02.06.05.13s.05.11.1.18c.05.06.38.37.43.5.02.07.2.3.2.3,0,0,.05.11.08.18.11.24.29.76.32.77-.02-.08-.02-.11,0-.04v.04c.02.15.08.51.1.76h.26c.32-.12.88-.34,1.29-.49.83-.31,1.57-.55,2.13-.75.26-.09-.06-1.25-.06-1.25,0,0,1.43-.48,2.15-.69.41-.12,1.87-.49,1.93-.51.1-.04.15-.2.16-.27,0-.06.11-.66,0-1.1l.02.02-.02-.02ZM26.06,22.27s.07,0,.09.02.06.04.08.04.04,0,.05.02c.02.02.02.07.06.11s.07.03.09.06.04.04.04.09v.08s.02.02.02.06-.02.11,0,.12c.01,0,.02.01.02.02,0,.01-.02.02-.02.03s.02.02.02.02v.05l.02.07s.11.02.13,0c.02-.02.03-.03.09-.06s.08-.09.15-.12c.06-.03.09-.09.12-.08.03,0,.08-.06.11-.06s.08-.03.11-.04c.04,0,.06,0,.08-.03.02-.02.02-.04.04-.04s0,0,.03-.04c.03-.02.04-.05.06-.06.02,0,.05-.06.1-.08.05-.02.1-.07.16-.07s.03,0,.08.05c.05.04.06.03.11.05.06.02.06-.02.07.02,0,.04.02.07.09.06.06,0,.07-.05.14-.08.39-.2.85-.44,1.35-.66h-3.16s-.03.07-.06.09c-.04.02-.05.02-.07.04s-.06,0-.09.04c-.02.03-.04.06-.06.06s-.04.02-.07.04c-.02.02-.05.02-.04.07,0,.05,0,.08.04.08h0v.02ZM41.91,21.83l.16-.08c.16-.09,1.46-.66,1.61-.75.15-.07,1.47-.68,1.47-.68,0,0,.38-.15.64-.28.19-.09.25-.1.31-.23.02-.06-.15-.68-.21-.8-.06-.12-.19-.52-.4-.83-.2-.31-.38-.5-.41-.54-.03-.03-.1-.05-.17-.05s-.31.07-.31.07c0,0-.77.26-.96.31-.19.05-4.63,1.53-5.21,1.74-.57.23-.71.23-1.78.69-.23.1-.36.13-.37.21,0,.05.04.06.11.11.09.06.29.2.36.23.12.06.32.27.32.27,0,0,.08.15.19.22s.13.08.26.23c.03.04.09.09.14.14h0c.11.11.23.2.23.2l.11.05.15.19s.06.05.11.1c.04.05.27.3.27.3,0,0,.1.07.16.15.06.07.12.13.15.19.02.06.07.14.15.19.07.05.15-.03.23-.07.09-.04.65-.34.75-.38.06-.02,1.42-.67,1.92-.93h0ZM33.51,15.53s.02.07.06.12c.02.03,0,.06.05.11s.02.04.09.1c.04.04.04.11.11.22.06.11.08.12.14.19.06.07.11.1.17.14.1.06.05.15.15.15.11,0,.19-.02.26,0,.06.02.02,0,.11,0s-.02,0,.07-.02c.1,0,.02.07.14.09,0,0,.06.03.19,0s.22-.05.25-.13c.07-.15.13-.16.19-.22s.07-.02.12-.04c.06-.02.07-.16.13-.2.09-.06.19-.2.26-.25.07-.06.25-.33.35-.53s.22-.5.23-.62-.02-.14.02-.23c.03-.08.05-.22.05-.31s-.02-.21-.04-.27-.02-.16-.02-.16c0,0-.06-.1-.06-.15s-.02-.12-.08-.16-.08-.17-.13-.26c-.04-.09-.1-.09-.1-.16s-.16-.19-.21-.25c-.06-.06-.19-.19-.24-.19h-.12c-.06,0-.06-.04-.11-.05s-.14-.02-.19.03c-.02.06-.06.04-.11.04s-.08.02-.13.05c-.04.02-.11.02-.13.06s-.11.07-.15.08-.14.08-.23.15-.47.35-.72.75c-.25.4-.21.54-.27.68-.06.15-.09.28-.14.41-.04.11-.02.62-.02.71,0,.08.06.11.06.15h0v-.02ZM37.63,18.66c2.29-.68,4.21-1.23,5.45-1.53,0,0,.27-.07.34-.08.06,0,.09-.02.11-.05.02-.02.05-.11.03-.17s-.06-.13-.05-.17.1-.23.1-.27-.04-.09-.06-.11.02-.12,0-.16c-.02-.04-.07-.08-.12-.11-.04-.02-.06-.19-.06-.21v-.06s.03-.02,0-.04-.07-.03-.07-.07v-.06s-.03-.05-.05-.06c-.02,0,0-.04,0-.09v-.08l-.11-.08s-.02-.02-.02-.06c0-.03,0-.05-.03-.06s-.16-.05-.16-.05c0,0-.09-.02-.12,0-.04.02-.06,0-.11.03s-.12.06-.17.06-.07.02-.11,0-.03-.03-.21.03c-.17.06-1.67.48-1.67.48,0,0-4.1,1.22-6.59,2.28-.83.35-4.17,1.75-7.35,3.74-.06.04-.1.06-.13.12,0,0,0,.02-.02.03h3.16c1.74-.81,3.99-1.74,5.46-2.27.78-.27,1.2-.45,2.6-.92v.02h-.04Z"/>
</svg>