<?xml version="1.0" encoding="UTF-8"?>
<svg id="Calque_1" xmlns="http://www.w3.org/2000/svg" version="1.1" viewBox="0 0 70 70">
  <!-- Generator: Adobe Illustrator 29.6.1, SVG Export Plug-In . SVG Version: 2.1.1 Build 9)  -->
  <defs>
    <style>
      .st0 {
        fill: none;
      }

      .st1 {
        fill: #263f69;
      }

      .st2 {
        fill: #fff;
      }

      .st3 {
        fill: #e60013;
      }
    </style>
  </defs>
  <g>
    <g>
      <g>
        <path class="st1" d="M34.69,68.92c-7.27-9.29-22.28-32.66-22.28-45.66S22.55.41,35,.41s22.6,10.25,22.6,22.85-13.67,34.45-22.27,45.66l-.32.41-.33-.41Z"/>
        <path class="st2" d="M35,.82c12.25,0,22.19,10.04,22.19,22.44s-14.28,35.12-22.19,45.41c-7.99-10.21-22.19-33.02-22.19-45.41S22.75.82,35,.82M35,0C22.32,0,12,10.44,12,23.26s15.06,36.6,22.36,45.92l.64.82.63-.83c8.65-11.25,22.36-33.66,22.36-45.91S47.69,0,35,0h0Z"/>
      </g>
      <ellipse class="st2" cx="35.31" cy="23.6" rx="16.2" ry="16.39"/>
    </g>
    <path class="st3" d="M27.49,17.48c0-.08.03-.21.09-.38.24-.67.56-1.37.97-2.09.41-.72.94-1.37,1.56-1.97.63-.59,1.37-1.09,2.23-1.48.85-.39,1.84-.59,2.95-.59,1.17,0,2.23.2,3.15.59.93.39,1.71.9,2.36,1.55.64.63,1.15,1.35,1.5,2.13.35.79.53,1.56.53,2.33,0,.71-.07,1.34-.2,1.9-.13.57-.34,1.09-.62,1.56s-.63.95-1.06,1.44c-.42.48-.94.99-1.52,1.52-.38.34-.69.64-.93.9-.24.27-.43.53-.59.81-.16.27-.29.56-.4.86-.11.31-.21.67-.33,1.1-.09.31-.25.61-.49.89-.24.28-.63.42-1.19.42h-1.9c-.5,0-.88-.14-1.12-.42-.25-.28-.37-.58-.37-.89v-.17c.06-.71.16-1.34.31-1.9s.36-1.1.64-1.6c.28-.51.63-1.01,1.03-1.52.41-.51.93-1.03,1.55-1.56.56-.48,1.05-.98,1.47-1.5s.64-1.1.64-1.75c0-.53-.24-1.02-.71-1.46-.47-.44-1.07-.66-1.81-.66-.59,0-1.04.17-1.37.51-.33.34-.6.73-.84,1.18-.06.12-.12.22-.2.34s-.14.21-.2.3c-.18.31-.39.58-.64.82s-.58.36-.99.36c-.09,0-.26-.02-.5-.07-.25-.04-.51-.1-.8-.17-.28-.07-.55-.13-.8-.19s-.41-.1-.5-.12c-.62-.22-.93-.56-.93-1.01h0v-.02ZM35.88,30.76c.4.18.72.42.99.7.26.28.46.59.59.93s.2.66.2.97c0,.65-.27,1.29-.8,1.92-.53.63-1.31.95-2.33.95s-1.82-.32-2.38-.95-.84-1.27-.84-1.92.28-1.29.84-1.92,1.35-.95,2.38-.95c.5,0,.95.09,1.34.27h0Z"/>
  </g>
  <rect class="st0" x=".01" y="0" width="70.05" height="70.05"/>
</svg>