<?xml version="1.0" encoding="UTF-8"?>
<svg id="Calque_1" xmlns="http://www.w3.org/2000/svg" version="1.1" viewBox="0 0 456.76 595.28">
  <!-- Generator: Adobe Illustrator 29.6.1, SVG Export Plug-In . SVG Version: 2.1.1 Build 9)  -->
  <defs>
    <style>
      .st0 {
        fill: #292e44;
      }

      .st1 {
        fill: #fff;
      }

      .st2 {
        fill: none;
        stroke: #e60013;
      }

      .st3 {
        fill: #e60013;
      }

      .st4 {
        fill: #e60013;
      }
    </style>
  </defs>
  <g>
    <g>
      <path class="st4" d="M136.88,521.95c.63-.37,2.03-1.12,2.2-1.22.27-.16.43-.14.44-.06.03.32.03.99.43,1.13.12.04.42-.1.48-.02.15.22.16.18.2.25.05.08.25.03.29.07.11.1,0,.24.06.31.11.11.3-.07.4-.05.18.04.23.24.2.37-.05.22.08.38.44.09.18-.15.2-.07.36-.15.09-.05.25-.04.32.02.07.07.17.18.27.22.15.06.31,0,.4.04.14.06.14.26.26.27.12.02.24-.21.31-.14.21.2-.18.54.09.62.15.04.2-.08.32-.09.12-.02.19-.16.29-.16s.17.12.3.05c.1-.06.19-.1.28-.16.14-.08.29-.04.37-.11.1-.08.02-.3.32-.25.3.06-.05.33.08.45.1.09.35,0,.43-.02.17-.05.31-.26.37-.39.07-.17.32-.72.42-.87.1-.15.35-.74.49-.94.13-.2.67-1.05.72-1.19.05-.13.24-.32.29-.42.05-.1.16-.44.29-.7.13-.27.5-.8.54-.9.03-.1.32-.75.42-.95s.45-.66.54-.88c.08-.22.32-.68.32-.68l.25-.42s.08-.18.2-.44c.12-.25.47-.79.57-.97.1-.18.38-.57.38-.57l.22-.49.17-.37s.13-.44.2-.55c.07-.12.3-.4.37-.55.07-.15.27-.82.37-1.02.1-.2.59-1.07.64-1.24.05-.17.55-1.07.6-1.26.05-.18.07-.43.13-.55.07-.12.27-.42.3-.5s.37-.89.42-1c.05-.12.08-.33.22-.33s.23.14.32.27c.1.14.3.12.42.23.12.12.5.54.52.6.02.07.23.08.28.15.05.07.08.23.15.27.07.03.4.27.47.37.07.1.15.3.23.37.08.07.47.3.52.4.05.1.6.77.67.89.07.12.12.32.17.4.05.08.25.2.27.28s.03.39.08.47c.05.08.28.18.32.27.03.08.13.4.18.45.05.05.15.12.18.18.03.07.07.44.12.5.05.07.22.35.27.47s.22.33.25.42c.03.08.05.42.08.54.03.12.18.37.2.44.02.07.05.27.05.27l.13.32s.15.32.15.44.03.25.05.33c.02.08.15.3.15.37s.18.45.18.45c0,0-.03.33,0,.42.03.08.18.32.18.4s-.05.3-.05.3l.08.13s-.05.18-.02.25c.03.07-.03.22.02.27.05.05.18.4.18.4-.1.12-7.08,3.35-10.08,4.74-4.31,2.01-13.28,6.51-14.23,7.06-.95.55-1.56.87-1.79.75-.53-.27-1.39-1.04-1.98-2.68-.5-1.38-.5-2.53-.46-3.11.03-.44,0-.77.67-1.16.23-.13,1.46-.83,2.09-1.19h0Z"/>
      <path class="st4" d="M124.47,497.23c.04.08.18.06.29.09.06.02.17.12.24.13.07,0,.17-.03.2,0,.11.08.09.19.16.29s.1.27.2.3c.1.03.23.02.27.12.03.1-.04.26.03.39.19.33.03,1.26.19,1.32.17.07.67-.1.85-.25.18-.16.43-.44.57-.5.26-.12.76-.39,1-.43.24-.05.36-.45.6-.47.24-.02.15-.21.32-.28.17-.07.48-.24.58-.14.05.05.14.17.29.23.18.07.38-.02.41.18.05.3.5.03.5.03,0,0,.56-.36.79-.46.23-.1.86-.43.86-.43,0,0,.49-.25.69-.35,7.54-3.62,13.49-5.62,18.95-7.73,8.5-3.29,23.21-7.07,26.01-7.77.29-.07.95-.17,1.03-.22.08-.05.21-.08.28-.35.07-.27-.13-.64-.13-.77s.3-.67.33-.9c.03-.23-.2-.27-.2-.27,0,0,.03-.29-.03-.5-.06-.21-.44-.4-.5-.57-.07-.17,0-.67-.07-.84s-.27-.3-.27-.3c0,0,.05-.09,0-.23-.05-.15-.2-.13-.2-.13,0,0,.06-.32.03-.44-.03-.12-.2-.2-.2-.2,0,0-.2-.13-.2-.27s-.03-.23-.13-.3c-.1-.07-.4-.07-.5-.1-.1-.03-.33-.1-.5-.07-.17.03-.23.17-.7.27-.47.1-.67,0-.87.03-.2.03-.43.17-.67.23-2.28.59-12.72,3.63-20.42,6.53-7.16,2.69-15.69,6.57-20.89,9.27-3.94,2.04-6.04,3.23-6.91,3.77-.45.28-.94.61-1.02.74-.12.2-.25.51-.51.55-.32.05-.27.22-.37.24-.12.03-.25.16-.35.25-.1.09-.06.23-.03.3h0Z"/>
      <path class="st4" d="M156.98,492.56c-.35-.21-.23-.4.18-.58,2.49-1.06,8.78-3.31,12.39-4.45,3.08-.98,11.58-3.75,13.95-4.43.57-.16.8-.16,1.05.11.64.68,1.27,1.6,1.86,2.74.54,1.05,1.01,2.57,1.2,3.53.13.7-.19.82-.57.99-2.63,1.18-9.12,4.02-11.83,5.3-2.64,1.25-7.47,3.57-9.1,4.39-.69.35-.58.49-1.05-.05-.14-.16-.37-.54-.44-.64-.07-.1-.97-.9-1.07-1s-.6-.7-.74-.8c-.13-.1-.57-.7-.7-.77-.13-.07-.36-.18-.46-.28-.1-.1-.28-.31-.38-.38-.1-.07-.33-.3-.33-.3l-.31-.28-.27-.3s-.23-.3-.4-.37-.4-.33-.47-.43c-.07-.1-.6-.77-.87-.94-.27-.17-.91-.59-1.05-.69-.13-.1-.31-.2-.6-.38h0Z"/>
      <path class="st4" d="M166.56,501.73c-.26-.26.07-.29.37-.41,1.1-.42,7.65-2.47,13.35-3.98,5.68-1.5,13.91-3.2,15.13-3.45.52-.1.71-.02.97.4.3.49.93,2.11,1.17,3.41.31,1.66.01,3.35-.13,3.75-.12.34-.59.36-1.7.66-.66.18-3.5.91-4.66,1.25-1.34.39-4.89,1.41-6.19,1.86-1.62.55-3.75,1.25-3.75,1.25l-11.28.19s-.17-.76-.27-.83c-.1-.07-.27-.44-.37-.54-.1-.1-.23-.47-.23-.47,0,0-.1-.4-.2-.47-.1-.07-.34-.64-.44-.71-.1-.07-.33-.36-.43-.49-.1-.13-.16-.3-.33-.43-.17-.13-.38-.4-.51-.47-.13-.07-.25-.27-.5-.53h0Z"/>
      <path class="st4" d="M152.51,467.39l.16-.16s.09-.1.18-.16c.09-.06.3-.06.3-.06,0,0,.24-.19.5-.14.11.02.19-.18.29-.2.1-.03.46-.08.51-.03.05.05.11.11.31.15.2.04.37,0,.45.01.1.03.21.16.29.19.08.02.99.87,1.12,1.08.04.07.05.21.08.25.04.07.2.17.25.4.04.18.23.24.25.5.01.16.31.29.39.61.02.08.06.4.08.45.02.05.09.07.13.18.04.11.06.28.05.41-.01.14.24.65.21.97-.02.31-.09.65-.16.89-.08.24-.02.69-.08.88-.05.19-.19.64-.21.78-.02.14-.41,1.09-.48,1.19-.06.1-.28.53-.38.65-.1.13-.87,1.2-1.01,1.34-.14.14-.48.4-.55.5-.09.14-.17.31-.26.46-.15.25-.36.06-.46.24-.14.24-.41.3-.45.44-.07.21-.25.4-.33.46-.19.15-.58.27-.78.28-.32.01-.6,0-.68-.09-.04-.06,0-.14-.08-.21-.08-.07-.24-.05-.29-.01-.05.04-.04.04-.15.08-.11.04-.54-.11-.69-.06-.15.05-.47.07-.58.01-.11-.05-.13-.35-.31-.43-.1-.04-.41-.21-.51-.39-.1-.18-.37-.44-.42-.56-.06-.12-.14-.33-.18-.43-.04-.1-.14-.31-.2-.39-.06-.08-.15-.14-.21-.21-.07-.07-.12-.31-.19-.41-.03-.05-.11-.16-.15-.24-.04-.08-.04-.17-.08-.26-.04-.09-.15-.23-.18-.31-.02-.09-.06-.68-.05-1.13.01-.45,0-.85.05-1.04.05-.18.14-.35.18-.54.04-.19.28-.8.34-1.09.06-.29.21-.83.29-1.02.08-.19.28-.69.38-.85.1-.16.48-.73.63-.92.15-.19.84-.88,1-1,.16-.13.54-.4.67-.49"/>
      <path class="st4" d="M130.37,513.04s-3.3,1.11-4.62,1.58c-1.25.45-2.62.93-3.54,1.31-1.12.46-3.09,1.26-3.56,1.42-.74.26-1.05.1-1.25-.33-.2-.43-.68-1.34-.94-2.42-.27-1.07-.36-1.96-.38-2.29-.02-.33.26-.92.66-1.14s1.36-.81,2.13-1.25c1.47-.85,6.54-3.55,9.56-5.11,3.2-1.65,8.24-4.1,10.96-5.44,2.71-1.34,7.16-3.45,7.7-3.68.54-.23,1.1-.5,1.37-.5s.17.13.17.23-.09.14-.13.34c-.03.2,0,.43-.07.63-.07.2-.24.39-.28.53-.03.13-.06.61-.19.78-.13.17-.61,1.1-.71,1.53-.1.43-.33,1.15-.43,1.31-.1.17-.42.8-.45,1-.03.2-.25.68-.32.88-.07.2-.47.95-.54,1.08-.07.13-.33,1.03-.4,1.16-.07.13-.33.54-.33.54l-.13.57s-.37.54-.37.64-.27,1-.4,1.2c-.13.2-.77,1.64-.9,2.14-.13.5-.37,1.24-.44,1.41-.07.17-.43.77-.5.97-.07.2-.37,1.21-.47,1.41s-.37.77-.37.97-.2.64-.37,1c-.17.37-.37,1-.47,1.24-.1.23-.23.4-.27.53-.03.13-.07.51-.1.61-.03.1-.1.27-.1.27-.17.08-9.17,3.95-10.44,4.55-1.27.6-10.41,4.93-10.98,5.2-.57.27-1.33.85-1.88.48-.72-.49-1.41-1.52-1.88-2.43-.39-.76-.81-2.03-.87-2.95-.08-1.15.4-1.36,2.1-2.35.83-.48,7.4-3.95,9.51-5.04.6-.31,4.92-2.58,4.92-2.58h0Z"/>
    </g>
    <g>
      <polygon class="st0" points="201.08 512.09 200.61 513.96 197.55 513.96 197.14 515.55 200.78 515.55 200.31 517.42 194.36 517.42 196.59 508.69 202.53 508.69 202.06 510.56 198.41 510.56 198.02 512.09 201.08 512.09"/>
      <polygon class="st0" points="185.49 512.09 185.01 513.96 181.95 513.96 181.55 515.54 185.19 515.54 184.71 517.41 178.77 517.41 181 508.69 186.94 508.69 186.46 510.56 182.82 510.56 182.43 512.09 185.49 512.09"/>
      <path class="st0" d="M207.5,517.36c-.68.07-1.62.2-2.04.2-2.63,0-4-1.62-3.25-4.53.75-2.89,2.96-4.51,5.59-4.51.64,0,1.29.1,1.9.24l-.35,2.03c-.53-.2-1.06-.35-1.66-.35-1.79,0-2.86,1.45-3.16,2.62-.35,1.35,0,2.6,1.42,2.6.91,0,1.61-.17,2.29-.35l-.73,2.07h0Z"/>
      <polygon class="st0" points="211.22 508.7 213.52 508.7 211.29 517.43 208.99 517.43 211.22 508.7"/>
      <polygon class="st0" points="173.89 508.72 173.74 514.2 173.76 514.2 176.48 508.72 179.5 508.72 177.27 517.46 175.36 517.46 176.96 511.19 176.93 511.19 173.82 517.45 171.86 517.45 171.98 511.21 171.96 511.21 170.37 517.45 168.61 517.45 170.84 508.72 173.89 508.72"/>
      <polygon class="st0" points="215.24 508.69 217.96 508.69 219.32 514.37 219.34 514.37 220.79 508.69 222.81 508.69 220.58 517.42 217.89 517.42 216.48 511.84 216.45 511.84 215.03 517.42 213.01 517.42 215.24 508.69"/>
      <path class="st0" d="M222.67,515.07c.5.34,1.13.59,1.77.59.37,0,1.04-.07,1.2-.68.29-1.11-2.29-2-1.72-4.23.26-1.02,1.25-2.26,3.28-2.26.66,0,1.31.1,1.89.25l-.28,2.07c-.44-.28-.97-.45-1.51-.45-.35,0-1.01.17-1.13.63-.33,1.28,2.32,1.88,1.73,4.16-.3,1.18-1.36,2.38-3.41,2.38-.74,0-1.45-.14-2.13-.3l.3-2.16h0Z"/>
      <path class="st0" d="M190.26,510.56h.81c1.23,0,1.5.86,1.09,2.49-.33,1.28-1.24,2.5-2.51,2.5h-1l1.27-4.99h.5l.02-1.87h-2.25l-2.23,8.73h3.65c2.52,0,4.2-1.83,4.85-4.37.94-3.69-1.06-4.36-2.13-4.36h-2.02l-.05,1.87h0Z"/>
    </g>
    <polygon class="st0" points="291.55 509.05 294.27 509.05 295.63 514.73 295.65 514.73 297.1 509.05 299.12 509.05 296.89 517.78 294.2 517.78 292.79 512.2 292.76 512.2 291.34 517.78 289.32 517.78 291.55 509.05"/>
    <path class="st0" d="M274.59,509.05h3.91c1.93,0,2.44.93,2,2.66-.26,1.03-1.05,1.78-2.17,2.21.2,1.31.38,2.68.62,3.86h-2.48c-.08-1.65-.16-3.31-.37-4.89.2.04.38.07.55.07.64,0,1.4-.29,1.62-1.14.24-.93-.48-.93-.81-.93h-1.13l-1.76,6.9h-2.2l2.23-8.73h0Z"/>
    <polygon class="st0" points="272.05 512.45 271.57 514.32 268.78 514.32 267.9 517.78 265.6 517.78 267.83 509.05 273.45 509.05 272.98 510.92 269.65 510.92 269.26 512.45 272.05 512.45"/>
    <polygon class="st0" points="300.05 509.04 306.54 509.04 306.07 510.92 303.97 510.92 302.22 517.77 299.92 517.77 301.67 510.92 299.57 510.92 300.05 509.04"/>
    <path class="st0" d="M232.24,515.42c.5.34,1.14.59,1.79.59.38,0,1.05-.07,1.21-.68.29-1.11-2.31-2-1.73-4.23.26-1.02,1.27-2.26,3.31-2.26.67,0,1.32.1,1.91.25l-.28,2.07c-.44-.27-.98-.44-1.52-.44-.36,0-1.02.17-1.14.63-.33,1.28,2.34,1.88,1.75,4.16-.3,1.18-1.37,2.38-3.45,2.38-.75,0-1.47-.14-2.15-.3l.3-2.16h0Z"/>
    <polygon class="st0" points="249.26 509.05 251.99 509.05 253.34 514.73 253.37 514.73 254.82 509.05 256.83 509.05 254.61 517.78 251.92 517.78 250.5 512.2 250.48 512.2 249.05 517.78 247.04 517.78 249.26 509.05"/>
    <path class="st0" d="M256.54,515.45c.49.34,1.12.59,1.76.59.37,0,1.04-.06,1.19-.68.28-1.11-2.27-2-1.71-4.23.26-1.02,1.25-2.26,3.26-2.26.66,0,1.3.11,1.88.25l-.28,2.07c-.43-.28-.96-.45-1.5-.45-.35,0-1.01.17-1.13.63-.33,1.28,2.3,1.88,1.72,4.16-.3,1.18-1.35,2.38-3.39,2.38-.73,0-1.44-.14-2.12-.3l.3-2.16h0Z"/>
    <polygon class="st0" points="307.58 509 309.89 509 307.66 517.73 305.35 517.73 307.58 509"/>
    <polygon class="st0" points="316 512.45 315.53 514.32 312.47 514.32 312.06 515.9 315.7 515.9 315.23 517.77 309.28 517.77 311.51 509.04 317.45 509.04 316.98 510.92 313.33 510.92 312.94 512.45 316 512.45"/>
    <polygon class="st0" points="331.14 512.45 330.67 514.32 327.61 514.32 327.2 515.9 330.84 515.9 330.37 517.77 324.42 517.77 326.65 509.04 332.59 509.04 332.12 510.92 328.48 510.92 328.08 512.45 331.14 512.45"/>
    <path class="st0" d="M318.91,509.05h3.91c1.93,0,2.44.93,2,2.66-.26,1.03-1.05,1.78-2.17,2.21.2,1.31.38,2.68.62,3.86h-2.48c-.08-1.65-.16-3.31-.37-4.89.2.04.38.07.55.07.64,0,1.4-.29,1.62-1.14.24-.93-.48-.93-.8-.93h-1.13l-1.76,6.9h-2.2l2.23-8.73h0Z"/>
    <path class="st0" d="M332.15,515.47c.49.34,1.12.59,1.76.59.37,0,1.04-.07,1.19-.68.28-1.11-2.28-2-1.71-4.23.26-1.02,1.25-2.26,3.27-2.26.66,0,1.3.1,1.88.25l-.28,2.07c-.43-.28-.96-.44-1.5-.44-.35,0-1.01.17-1.13.63-.33,1.28,2.3,1.88,1.72,4.16-.3,1.18-1.35,2.38-3.39,2.38-.74,0-1.44-.14-2.12-.3l.3-2.16h0Z"/>
    <path class="st0" d="M242.98,513.43h.8l-.15-2.5h-.02l-1.54,2.5h1l-.02,1.83h-1.99l-1.51,2.51h-2.52c1.98-2.84,3.85-5.8,5.74-8.73h2.76c.18,2.87.53,5.84.82,8.73h-2.45l-.15-2.51h-.8l.02-1.83h0Z"/>
    <path class="st0" d="M287.08,513.42c.33-1.41-.08-2.6-1.42-2.6s-2.4,1.27-2.74,2.62c-.34,1.35.02,2.6,1.41,2.6s2.41-1.25,2.78-2.66l2.24.15c-.78,2.93-3.01,4.42-5.5,4.42s-3.96-1.62-3.22-4.53c.74-2.89,2.93-4.51,5.53-4.51s4.03,1.69,3.18,4.77l-2.25-.25h0Z"/>
    <polygon class="st0" points="202.18 526.5 201.7 528.37 198.62 528.37 198.22 529.95 201.88 529.96 201.4 531.83 195.42 531.82 197.66 523.09 203.63 523.1 203.16 524.97 199.49 524.96 199.1 526.5 202.18 526.5"/>
    <path class="st0" d="M175.29,523.08h3.93c1.94.01,2.45.94,2.01,2.67-.26,1.03-1.05,1.78-2.18,2.21.21,1.31.38,2.69.62,3.87h-2.49c-.09-1.66-.17-3.32-.38-4.9.2.04.38.07.56.07.64,0,1.41-.29,1.63-1.14.24-.93-.48-.93-.81-.93h-1.14s-1.76,6.9-1.76,6.9h-2.22s2.23-8.74,2.23-8.74h0Z"/>
    <polygon class="st0" points="189.95 523.08 196.84 523.09 196.36 524.96 194.08 524.96 192.32 531.82 190.01 531.82 191.76 524.96 189.47 524.95 189.95 523.08"/>
    <polygon class="st0" points="292.39 526.7 291.91 528.57 288.83 528.56 288.43 530.15 292.09 530.16 291.61 532.03 285.63 532.02 287.86 523.28 293.84 523.29 293.36 525.17 289.7 525.16 289.31 526.69 292.39 526.7"/>
    <polygon class="st0" points="268.73 526.6 268.26 528.47 265.18 528.47 264.77 530.05 268.44 530.06 267.96 531.93 261.98 531.92 264.21 523.18 270.19 523.2 269.71 525.07 266.05 525.06 265.66 526.59 268.73 526.6"/>
    <polygon class="st0" points="241.42 526.63 240.94 528.5 237.87 528.5 237.46 530.08 241.12 530.09 240.64 531.96 234.67 531.95 236.9 523.22 242.88 523.23 242.4 525.1 238.74 525.09 238.34 526.63 241.42 526.63"/>
    <polygon class="st0" points="294.97 523.29 297.71 523.29 299.08 528.98 299.1 528.98 300.55 523.3 302.58 523.3 300.35 532.04 297.65 532.03 296.22 526.45 296.2 526.45 294.77 532.03 292.74 532.02 294.97 523.29"/>
    <polygon class="st0" points="271.39 523.18 274.13 523.18 275.5 528.87 275.52 528.87 276.97 523.19 279 523.19 276.77 531.93 274.07 531.92 272.64 526.34 272.62 526.34 271.19 531.92 269.16 531.91 271.39 523.18"/>
    <polygon class="st0" points="227.58 523.22 230.32 523.22 231.69 528.91 231.71 528.91 233.16 523.23 235.19 523.23 232.96 531.97 230.26 531.96 228.83 526.38 228.81 526.38 227.38 531.96 225.35 531.95 227.58 523.22"/>
    <path class="st0" d="M256.39,523.17h3.93c1.94.01,2.45.94,2.01,2.67-.26,1.03-1.05,1.78-2.18,2.21.21,1.31.38,2.69.62,3.87h-2.49c-.09-1.66-.17-3.32-.38-4.9.2.04.38.07.56.07.64,0,1.41-.29,1.63-1.14.24-.93-.48-.93-.81-.93h-1.14s-1.76,6.9-1.76,6.9h-2.22s2.23-8.74,2.23-8.74h0Z"/>
    <polygon class="st0" points="280.46 523.17 286.73 523.18 286.24 525.09 281.35 530.03 284.93 530.04 284.46 531.91 278.01 531.9 278.5 529.99 283.36 525.05 279.98 525.04 280.46 523.17"/>
    <path class="st0" d="M254.02,526.78l-1.26,4.92c-1.01.14-2.22.34-3.61.33-2.3,0-3.68-1.63-2.93-4.54.74-2.89,2.94-4.52,5.56-4.51.99,0,1.85.13,2.68.35l-.37,2.06c-.67-.3-1.42-.49-2.21-.49-1.61,0-2.93,1.03-3.4,2.86-.42,1.62.22,2.44,1.43,2.44.34,0,.73-.06,1.09-.23l.35-1.36h-.96s.47-1.83.47-1.83h3.18s0,0,0,0Z"/>
    <polygon class="st0" points="182.89 523.07 189.16 523.08 188.67 524.99 183.78 529.93 187.36 529.94 186.89 531.81 180.44 531.8 180.93 529.89 185.79 524.95 182.41 524.94 182.89 523.07"/>
    <path class="st0" d="M218.14,532.13h-2.4s2.34-8.81,2.34-8.81h2.41s-.91,3.4-.91,3.4h3.13s.9-3.4.9-3.4h2.42s-2.34,8.81-2.34,8.81h-2.42s.95-3.59.95-3.59h-3.12s-.95,3.6-.95,3.6h0Z"/>
    <path class="st0" d="M169.28,522.36c-.31,0-.57-.25-.57-.57s.25-.57.57-.57.57.25.57.57-.25.57-.57.57Z"/>
    <path class="st0" d="M171.65,522.36c.31,0,.57-.25.57-.57s-.25-.57-.57-.57-.57.25-.57.57.25.57.57.57Z"/>
    <path d="M248.97,520.46"/>
    <line class="st2" x1="335.57" y1="520.24" x2="168.07" y2="520.24"/>
    <path class="st0" d="M213.62,527.69c.33-1.41-.08-2.6-1.42-2.6s-2.4,1.27-2.74,2.62c-.34,1.35.02,2.6,1.41,2.6s2.41-1.25,2.78-2.66l2.24.15c-.78,2.93-3.01,4.42-5.5,4.42s-3.96-1.62-3.22-4.53c.74-2.89,2.93-4.51,5.53-4.51s4.03,1.69,3.18,4.77l-2.25-.25h0Z"/>
    <path class="st0" d="M169.12,527.46h.8l-.15-2.5h-.02l-1.54,2.5h1l-.02,1.83h-1.99l-1.51,2.51h-2.52c1.98-2.84,3.85-5.8,5.74-8.73h2.76c.18,2.87.53,5.84.82,8.73h-2.45l-.15-2.51h-.8l.02-1.83h0Z"/>
  </g>
  <g>
    <path class="st4" d="M97.91,341.74c0,.72-.25,1.33-.73,1.82-.49.49-1.07.73-1.74.73s-1.25-.24-1.74-.73c-.49-.49-.73-1.1-.73-1.82v-25.92l-10.48,14.28c-.06.1-.12.19-.17.27-.06.08-.12.16-.2.24-.25.26-.5.45-.75.57-.44.22-.88.29-1.31.21s-.83-.32-1.2-.72c-.19-.18-.36-.41-.49-.69l-10.43-14.13v25.89c0,.72-.24,1.33-.73,1.82s-1.08.73-1.77.73-1.25-.24-1.74-.73-.73-1.1-.73-1.82v-33.3c0-.68.22-1.25.65-1.73.43-.47.96-.73,1.57-.79.4-.06.8-.02,1.18.11.38.13.7.37.95.71l13.16,17.94,13.1-17.88c.17-.24.38-.43.63-.57.25-.14.52-.23.81-.27.19-.04.34-.06.43-.06.69,0,1.28.25,1.76.73.48.49.72,1.1.72,1.82v33.3h0Z"/>
    <path class="st4" d="M118.22,327.13c-1.73-.34-3.37-.79-4.91-1.36-1.54-.57-2.9-1.29-4.08-2.16-1.17-.87-2.1-1.9-2.78-3.09-.68-1.19-1.02-2.58-1.02-4.19s.36-3.09,1.07-4.41c.71-1.32,1.66-2.45,2.84-3.39,1.18-.94,2.53-1.67,4.05-2.17s3.07-.77,4.68-.77c1.21,0,2.4.12,3.55.36,1.15.24,2.24.6,3.26,1.07,1.02.47,1.94,1.05,2.77,1.75s1.51,1.51,2.07,2.43c.31.5.39,1,.25,1.51-.14.51-.38.92-.71,1.22-.19.18-.41.33-.68.43-.27.11-.55.18-.85.2-.3.02-.61,0-.93-.08s-.62-.21-.91-.44c-.58-.58-1.14-1.08-1.7-1.5-.56-.42-1.14-.76-1.76-1.02-.62-.26-1.27-.45-1.96-.57-.69-.12-1.47-.18-2.33-.18-.93,0-1.83.12-2.72.38s-1.67.61-2.36,1.08c-.69.47-1.24,1.04-1.65,1.72-.41.68-.62,1.46-.62,2.34,0,.96.26,1.76.77,2.39.51.63,1.2,1.16,2.05,1.59.85.43,1.83.79,2.92,1.06,1.09.28,2.2.55,3.34.81,1.48.4,2.93.88,4.34,1.44,1.41.56,2.66,1.26,3.75,2.1,1.09.84,1.97,1.85,2.64,3.03.67,1.18,1,2.59,1,4.23,0,1.72-.36,3.29-1.07,4.72-.71,1.43-1.68,2.66-2.92,3.69s-2.68,1.83-4.33,2.42c-1.65.58-3.4.87-5.25.87-1.52,0-2.98-.19-4.37-.57s-2.67-.9-3.83-1.56c-1.16-.66-2.18-1.44-3.06-2.34-.88-.9-1.55-1.86-2.02-2.88-.21-.42-.32-.81-.34-1.18s.03-.71.14-1,.28-.56.51-.79c.23-.23.48-.42.77-.55.66-.34,1.28-.41,1.87-.21.59.2,1.18.68,1.78,1.44.84,1.4,2.03,2.5,3.57,3.3,1.53.8,3.27,1.2,5.21,1.2.97,0,1.93-.13,2.89-.41.96-.27,1.81-.67,2.56-1.2.75-.53,1.36-1.19,1.84-1.97.47-.78.71-1.68.71-2.7s-.24-1.83-.71-2.49c-.47-.66-1.09-1.21-1.85-1.65-.76-.44-1.62-.8-2.58-1.09s-1.92-.58-2.89-.86h0Z"/>
    <path class="st4" d="M164.11,305.89c.74,0,1.37.25,1.88.75.51.5.77,1.11.77,1.83s-.26,1.36-.77,1.86c-.52.5-1.14.75-1.88.75h-18.69v12.84h14.37c.74,0,1.37.27,1.89.79.51.53.77,1.16.77,1.88s-.26,1.32-.77,1.8c-.52.48-1.14.72-1.89.72h-14.37v12.63c0,.72-.26,1.33-.79,1.82s-1.16.73-1.9.73-1.37-.25-1.88-.75c-.52-.5-.77-1.1-.77-1.8v-33.36c0-.28.05-.56.15-.85.1-.29.26-.55.46-.79.21-.24.47-.44.8-.6.33-.16.74-.24,1.24-.24h21.38Z"/>
    <path class="st0" d="M209.87,311.41c.52.5.78,1.1.78,1.8s-.26,1.3-.78,1.8c-.5.5-1.1.76-1.8.78-.7.02-1.31-.23-1.83-.75-1.44-1.4-3.04-2.46-4.81-3.18s-3.59-1.08-5.45-1.08-3.75.37-5.47,1.11c-1.73.74-3.25,1.75-4.54,3.04-1.3,1.29-2.33,2.81-3.09,4.56-.76,1.75-1.14,3.64-1.14,5.66s.36,3.75,1.08,5.47c.72,1.73,1.71,3.25,2.99,4.56,1.27,1.31,2.77,2.35,4.5,3.13,1.73.78,3.59,1.17,5.59,1.17,1.76,0,3.46-.26,5.1-.79,1.64-.53,3.18-1.42,4.62-2.66v-5.49h-5.94c-.36,0-.7-.07-1.01-.21-.31-.14-.58-.33-.81-.57s-.41-.51-.54-.83c-.13-.31-.2-.65-.2-1,0-.7.24-1.3.73-1.8s1.1-.75,1.82-.75h8.49c.74,0,1.37.24,1.89.72.52.48.78,1.09.78,1.83v9.18c0,.44-.08.81-.24,1.11-.16.3-.37.59-.63.87-2.18,1.96-4.47,3.38-6.86,4.26s-4.84,1.31-7.36,1.29c-1.74,0-3.42-.24-5.04-.71s-3.14-1.12-4.56-1.96c-1.42-.84-2.72-1.86-3.9-3.04-1.18-1.19-2.19-2.5-3.03-3.95-.84-1.44-1.5-2.99-1.97-4.63-.47-1.65-.71-3.38-.71-5.17s.23-3.5.68-5.16c.45-1.66,1.09-3.21,1.92-4.67.83-1.45,1.83-2.78,3-3.98,1.17-1.2,2.48-2.23,3.91-3.09,1.44-.86,2.99-1.52,4.65-2,1.66-.47,3.4-.71,5.22-.71,2.68,0,5.19.49,7.53,1.47s4.48,2.43,6.42,4.35h0Z"/>
    <path class="st0" d="M223.25,327.73c0,1.66.33,3.21.99,4.63.66,1.43,1.54,2.67,2.66,3.72,1.11,1.05,2.4,1.88,3.87,2.49,1.47.61,3.02.92,4.64.92s3.15-.3,4.58-.92c1.43-.61,2.67-1.45,3.72-2.52,1.05-1.07,1.88-2.32,2.49-3.75s.91-2.96.91-4.61v-19.26c0-.72.25-1.33.75-1.82.5-.49,1.11-.73,1.83-.73s1.33.25,1.83.73c.5.49.75,1.1.75,1.82v19.29c0,2.32-.44,4.51-1.32,6.57-.88,2.06-2.09,3.86-3.62,5.39-1.53,1.53-3.31,2.74-5.35,3.63s-4.23,1.33-6.57,1.33-4.56-.45-6.66-1.33-3.94-2.1-5.52-3.63c-1.58-1.53-2.83-3.33-3.75-5.39-.92-2.06-1.38-4.25-1.38-6.57v-19.2c0-.74.25-1.36.75-1.86.5-.5,1.11-.75,1.83-.75s1.33.25,1.83.75c.5.5.75,1.12.75,1.86v19.2h0Z"/>
    <path class="st0" d="M262.46,344.29c-.7-.06-1.27-.33-1.72-.83-.45-.49-.67-1.08-.67-1.78v-33.21c0-.74.25-1.36.76-1.85.51-.49,1.12-.73,1.84-.73h21.84c.72,0,1.32.25,1.81.75s.74,1.11.74,1.83-.25,1.33-.74,1.84-1.09.76-1.81.76h-19.26v10.95h14.85c.36,0,.7.07,1.02.21.32.14.6.33.84.57.24.24.42.51.56.83.13.31.19.64.19,1,0,.72-.25,1.33-.75,1.81-.5.49-1.12.74-1.86.74h-14.85v11.91h19.26c.36,0,.69.07,1,.21.31.14.58.33.81.57.23.24.41.52.54.83.13.31.2.65.2,1,0,.74-.25,1.36-.74,1.86s-1.09.74-1.81.72h-22.05,0Z"/>
    <path class="st0" d="M304.46,327.13c-1.68-.34-3.27-.79-4.77-1.36-1.5-.57-2.82-1.29-3.96-2.16s-2.04-1.9-2.7-3.09c-.66-1.19-.99-2.58-.99-4.19s.35-3.09,1.04-4.41c.69-1.32,1.61-2.45,2.76-3.39,1.15-.94,2.46-1.67,3.93-2.17,1.47-.51,2.98-.77,4.54-.77,1.18,0,2.33.12,3.45.36,1.12.24,2.17.6,3.17,1.07.99.47,1.88,1.05,2.68,1.75s1.47,1.51,2.01,2.43c.3.5.38,1,.24,1.51-.14.51-.37.92-.69,1.22-.18.18-.4.33-.66.43-.26.11-.54.18-.83.2-.29.02-.59,0-.9-.08-.31-.07-.6-.21-.88-.44-.56-.58-1.11-1.08-1.65-1.5-.54-.42-1.11-.76-1.71-1.02-.6-.26-1.23-.45-1.9-.57-.67-.12-1.43-.18-2.27-.18-.9,0-1.78.12-2.64.38-.86.25-1.62.61-2.29,1.08-.67.47-1.21,1.04-1.61,1.72-.4.68-.6,1.46-.6,2.34,0,.96.25,1.76.75,2.39s1.17,1.16,2,1.59c.83.43,1.77.79,2.83,1.06,1.06.28,2.14.55,3.24.81,1.44.4,2.84.88,4.21,1.44,1.37.56,2.58,1.26,3.64,2.1,1.06.84,1.92,1.85,2.57,3.03.65,1.18.97,2.59.97,4.23,0,1.72-.34,3.29-1.04,4.72-.69,1.43-1.63,2.66-2.83,3.69s-2.6,1.83-4.2,2.42c-1.6.58-3.3.87-5.1.87-1.48,0-2.89-.19-4.25-.57-1.35-.38-2.59-.9-3.72-1.56s-2.12-1.44-2.97-2.34c-.85-.9-1.51-1.86-1.97-2.88-.2-.42-.31-.81-.33-1.18-.02-.37.02-.71.13-1,.11-.3.27-.56.5-.79.22-.23.47-.42.75-.55.64-.34,1.25-.41,1.81-.21.57.2,1.14.68,1.73,1.44.82,1.4,1.97,2.5,3.46,3.3,1.49.8,3.17,1.2,5.05,1.2.94,0,1.88-.13,2.8-.41.93-.27,1.76-.67,2.49-1.2.73-.53,1.33-1.19,1.79-1.97.46-.78.69-1.68.69-2.7s-.23-1.83-.69-2.49-1.06-1.21-1.8-1.65c-.74-.44-1.58-.8-2.5-1.09-.93-.29-1.87-.58-2.81-.86h0Z"/>
    <path class="st0" d="M336.74,327.13c-1.68-.34-3.27-.79-4.77-1.36-1.5-.57-2.82-1.29-3.96-2.16-1.14-.87-2.04-1.9-2.7-3.09-.66-1.19-.99-2.58-.99-4.19s.34-3.09,1.04-4.41c.69-1.32,1.61-2.45,2.76-3.39,1.15-.94,2.46-1.67,3.93-2.17s2.99-.77,4.54-.77c1.18,0,2.33.12,3.45.36,1.12.24,2.18.6,3.17,1.07s1.88,1.05,2.68,1.75c.8.7,1.47,1.51,2.01,2.43.3.5.38,1,.24,1.51-.14.51-.37.92-.69,1.22-.18.18-.4.33-.66.43-.26.11-.54.18-.82.2-.29.02-.59,0-.9-.08s-.61-.21-.88-.44c-.56-.58-1.11-1.08-1.65-1.5-.54-.42-1.11-.76-1.71-1.02-.6-.26-1.24-.45-1.91-.57s-1.42-.18-2.26-.18c-.9,0-1.78.12-2.64.38-.86.25-1.62.61-2.29,1.08s-1.21,1.04-1.6,1.72c-.4.68-.6,1.46-.6,2.34,0,.96.25,1.76.75,2.39s1.17,1.16,2,1.59c.83.43,1.78.79,2.83,1.06,1.06.28,2.14.55,3.24.81,1.44.4,2.84.88,4.22,1.44,1.37.56,2.58,1.26,3.64,2.1s1.91,1.85,2.56,3.03c.65,1.18.97,2.59.97,4.23,0,1.72-.34,3.29-1.03,4.72-.69,1.43-1.64,2.66-2.84,3.69s-2.6,1.83-4.2,2.42c-1.6.58-3.3.87-5.1.87-1.48,0-2.9-.19-4.25-.57-1.35-.38-2.59-.9-3.72-1.56s-2.12-1.44-2.97-2.34c-.85-.9-1.5-1.86-1.96-2.88-.2-.42-.31-.81-.33-1.18-.02-.37.02-.71.13-1s.28-.56.5-.79c.22-.23.47-.42.75-.55.64-.34,1.25-.41,1.82-.21.57.2,1.14.68,1.72,1.44.82,1.4,1.97,2.5,3.46,3.3,1.49.8,3.17,1.2,5.06,1.2.94,0,1.88-.13,2.8-.41.93-.27,1.76-.67,2.49-1.2.73-.53,1.32-1.19,1.79-1.97.46-.78.69-1.68.69-2.7s-.23-1.83-.69-2.49c-.46-.66-1.06-1.21-1.8-1.65-.74-.44-1.57-.8-2.5-1.09-.93-.29-1.87-.58-2.81-.86h0Z"/>
    <path class="st4" d="M371.57,305.89c1.94,0,3.77.35,5.49,1.05,1.72.7,3.22,1.66,4.5,2.88,1.28,1.22,2.29,2.67,3.03,4.35.74,1.68,1.11,3.49,1.11,5.43,0,1.4-.2,2.72-.58,3.96s-.94,2.38-1.65,3.4c-.71,1.03-1.55,1.95-2.54,2.75-.98.8-2.06,1.46-3.24,1.98l6.54,8.16c.26.26.45.55.58.88.13.33.19.66.18.99-.01.33-.08.66-.22.97-.14.32-.34.6-.6.84-.52.5-1.09.75-1.71.74s-1.19-.26-1.71-.76l-8.7-10.56h-8.91v8.79c0,.72-.26,1.33-.77,1.82s-1.12.73-1.84.73-1.3-.24-1.82-.73c-.51-.49-.76-1.1-.76-1.82v-33.27c0-.36.07-.7.21-1.01.14-.31.33-.58.55-.82.23-.24.5-.42.81-.56.31-.13.64-.19,1-.19h11.04ZM363.14,311.08v16.71h8.46c1.26,0,2.43-.21,3.52-.64s2.03-1.01,2.82-1.74c.79-.73,1.41-1.59,1.88-2.59.46-1,.69-2.07.69-3.21s-.23-2.25-.69-3.29c-.46-1.03-1.08-1.94-1.88-2.71-.79-.78-1.73-1.4-2.8-1.85-1.08-.45-2.24-.67-3.48-.67h-8.52Z"/>
  </g>
  <g id="_x39_31gOS">
    <path class="st0" d="M315.97,182.5c0,49.73-40.32,90.05-90.05,90.05s-90.05-40.32-90.05-90.05,40.32-90.05,90.05-90.05,90.05,40.32,90.05,90.05h0ZM223.2,97.84c-14.43,1.6-25.46,13.36-32.28,25.35-1.2,2.11-6.42,12.29-6.17,14.01,12.34,4.08,25.43,6.07,38.45,6.04v-45.41h0ZM228.63,143.24c13.08-.09,26.56-1.74,38.79-6.4-7.01-17.13-18.69-36.39-38.79-39.01v45.41h0ZM201.85,101.33c-15.27,4.38-29.23,13.42-39.58,25.42,5.26,3.62,11.08,6.4,17.08,8.57,5.1-12.82,11.94-24.9,22.5-33.98ZM249.98,101.33c10.53,9.08,17.45,21.16,22.5,33.98,6.01-2.14,11.82-4.94,17.08-8.57-10.32-11.99-24.32-21.07-39.58-25.42ZM171.58,179.72c.21-13.21,2.06-26.46,6.16-39.01l-18.78-9.51-.57.19c-10.45,13.85-16.7,30.9-17.07,48.33h30.27ZM310.52,179.72c-.35-15.18-5.29-31.24-13.81-43.82-.57-.84-3.19-4.71-3.83-4.71l-18.78,9.51c4.08,12.55,6,25.8,6.16,39.01h30.27ZM223.2,148.67c-13.86,0-27.42-2.76-40.73-6.2-3.25,12.12-5.69,24.62-5.45,37.24h46.18v-31.05h0ZM228.63,148.67v31.05h46.18c.26-12.64-2.16-25.13-5.45-37.24-13.31,3.45-26.88,6.21-40.73,6.2h0ZM171.58,185.15h-30.27c.27,15.02,5.03,30.03,13.03,42.66.76,1.2,5.08,7.82,6.1,7.73.62-.05,7.56-4.21,9.05-4.93,2.85-1.36,6.01-2.71,9.07-3.55-4.48-13.47-6.87-27.67-6.99-41.91ZM223.2,185.15h-46.18c-.06,13.44,2.06,27.18,6.58,39.81,12.9-3.58,26.16-5.78,39.6-6.05v-33.76h0ZM274.81,185.15h-46.18v33.76c13.43.24,26.71,2.46,39.6,6.05,4.49-12.63,6.7-26.38,6.58-39.81h0ZM310.52,185.15h-30.27c-.1,14.22-2.49,28.45-6.99,41.91,3.05.85,6.21,2.19,9.07,3.55,1.49.71,8.43,4.87,9.05,4.93,1.02.09,5.34-6.53,6.1-7.73,8.01-12.64,12.77-27.62,13.03-42.66h0ZM223.2,224.35c-10.19.05-20.7,1.29-30.59,3.75-1.12.28-6.86,1.66-7.02,2.29,6.37,16.35,18.69,34.54,37.61,36.64v-42.69ZM228.63,267.04c18.96-2.11,31.23-20.26,37.61-36.64-.16-.63-5.62-1.94-6.71-2.22-9.96-2.51-20.63-3.76-30.9-3.83v42.69ZM180.47,232.14c-.91-.66-16.66,6.93-16.64,7.93,10.3,10.93,23.41,19.55,38.02,23.47-9.79-8.34-16.64-19.52-21.38-31.4h0ZM288.01,239.49c-5.53-2.45-10.65-6.02-16.65-7.35-4.62,11.92-11.63,23.05-21.38,31.4,10.77-2.89,21.32-8.61,29.89-15.71,1.97-1.63,6.43-5.44,7.76-7.37.23-.33.54-.38.38-.97h0Z"/>
  </g>
  <g>
    <g>
      <path class="st3" d="M266.88,100.67c0,22.38-26.08,63.42-40.52,82-14.6-18.44-40.52-59.62-40.52-82s18.14-40.52,40.52-40.52,40.52,18.14,40.52,40.52Z"/>
      <circle class="st1" cx="226.92" cy="101.28" r="29.6"/>
    </g>
    <path class="st3" d="M212.63,90.23c0-.15.05-.38.16-.69.43-1.22,1.02-2.48,1.77-3.78.75-1.3,1.7-2.48,2.86-3.55,1.15-1.07,2.51-1.96,4.06-2.67,1.56-.71,3.35-1.07,5.39-1.07,2.15,0,4.06.36,5.75,1.07,1.69.71,3.13,1.64,4.31,2.79,1.18,1.14,2.09,2.43,2.74,3.85.64,1.43.97,2.82.97,4.2,0,1.27-.12,2.42-.36,3.43-.24,1.02-.62,1.96-1.13,2.82-.51.87-1.15,1.73-1.93,2.6-.78.87-1.7,1.78-2.78,2.75-.7.61-1.26,1.16-1.69,1.64-.43.48-.79.97-1.09,1.45-.3.48-.54,1.01-.72,1.56-.19.56-.39,1.22-.6,1.98-.16.56-.46,1.1-.88,1.6-.43.51-1.15.76-2.17.76h-3.46c-.91,0-1.6-.25-2.05-.76-.46-.51-.68-1.04-.68-1.6v-.31c.11-1.27.29-2.42.56-3.43.27-1.02.66-1.98,1.17-2.9.51-.92,1.14-1.83,1.89-2.75.75-.92,1.69-1.86,2.82-2.82,1.02-.86,1.92-1.77,2.7-2.71.78-.94,1.17-2,1.17-3.17,0-.97-.43-1.84-1.29-2.63-.86-.79-1.96-1.18-3.3-1.18-1.07,0-1.91.31-2.5.92-.59.61-1.1,1.32-1.53,2.14-.11.2-.23.41-.36.61-.13.2-.26.38-.36.53-.32.56-.71,1.06-1.17,1.49-.46.43-1.06.65-1.81.65-.16,0-.47-.04-.93-.11-.46-.08-.94-.18-1.45-.31-.51-.13-.99-.24-1.45-.34-.46-.1-.76-.18-.93-.23-1.13-.41-1.69-1.02-1.69-1.83h0ZM227.96,114.21c.72.33,1.33.75,1.81,1.26.48.51.84,1.07,1.09,1.68s.36,1.2.36,1.76c0,1.17-.48,2.33-1.45,3.47-.97,1.14-2.39,1.72-4.27,1.72s-3.33-.57-4.35-1.72c-1.02-1.14-1.53-2.3-1.53-3.47s.51-2.33,1.53-3.47c1.02-1.14,2.47-1.72,4.35-1.72.91,0,1.73.17,2.45.5h0Z"/>
  </g>
</svg>